<svg width="512" height="88" xmlns="http://www.w3.org/2000/svg">
  <g fill="none" fill-rule="evenodd">
    <path d="M203.674 25.825a3.745 3.745 0 011.04 2.717V80.78a4.198 4.198 0 01-1.162 3.011 3.953 3.953 0 01-2.975 1.224 5.9 5.9 0 01-1.848-.293 3.17 3.17 0 01-1.42-.906l-33.841-44.062v41.48a3.672 3.672 0 01-3.782 3.781 3.513 3.513 0 01-2.668-1.077 3.745 3.745 0 01-1.028-2.705V28.885a3.978 3.978 0 011.224-2.962 3.855 3.855 0 012.876-1.163 5.238 5.238 0 011.983.38 3.427 3.427 0 011.456 1.077l33.695 44.159V28.542a3.672 3.672 0 013.782-3.782c1-.037 1.968.35 2.668 1.065zm69.52 0a4.21 4.21 0 011.076 2.974v33.046a24.736 24.736 0 01-3.01 12.24 21.884 21.884 0 01-8.311 8.481 23.45 23.45 0 01-11.921 3.11 23.879 23.879 0 01-12.056-3.048 21.81 21.81 0 01-8.347-8.482 24.736 24.736 0 01-3.01-12.24V28.86a3.953 3.953 0 011.223-2.974 4.296 4.296 0 013.097-1.224c1.088 0 2.13.442 2.888 1.224a3.917 3.917 0 011.224 2.925v33.046a15.752 15.752 0 002.068 8.054 14.859 14.859 0 0012.913 7.527c2.683.02 5.325-.664 7.662-1.983a14.956 14.956 0 005.679-5.544 15.544 15.544 0 002.105-8.054V28.811a4.357 4.357 0 011.028-2.974 3.672 3.672 0 012.852-1.224 3.733 3.733 0 012.84 1.212zm66.25 52.996c.517.71.788 1.57.772 2.448a3.745 3.745 0 01-1.224 2.925 4.076 4.076 0 01-2.803 1.114 3.855 3.855 0 01-3.354-1.714l-16.73-22.336-16.352 22.3a3.953 3.953 0 01-3.354 1.799 3.562 3.562 0 01-2.631-1.077 3.341 3.341 0 01-1.078-2.448 4.626 4.626 0 011.04-2.84l17.65-24.025-17.735-23.842a4.002 4.002 0 01-.869-2.448A3.917 3.917 0 01294 25.752a4.027 4.027 0 012.889-1.224 4.186 4.186 0 011.848.44 3.794 3.794 0 011.505 1.285l16.535 22.215 16.377-21.994a4.161 4.161 0 013.268-1.897 3.672 3.672 0 012.717 1.223 3.672 3.672 0 011.224 2.632 4.333 4.333 0 01-.857 2.448l-17.967 23.915 17.906 24.026zm62.115-52.996a3.757 3.757 0 011.224 2.888 3.672 3.672 0 01-1.224 2.84 4.357 4.357 0 01-2.974 1.028h-15.324V80.89a3.929 3.929 0 01-1.224 2.925 4.724 4.724 0 01-6.29 0 3.966 3.966 0 01-1.224-2.925V32.58h-15.287a4.21 4.21 0 01-2.962-1.065 3.757 3.757 0 01-1.163-2.888 3.672 3.672 0 011.163-2.803 4.21 4.21 0 012.962-1.065h39.349a4.26 4.26 0 012.974 1.065z" fill="#2F495E"/>
    <path d="M420.408 83.472a18.114 18.114 0 01-6.72-6.634 4.357 4.357 0 01-.783-2.325c0-1.08.474-2.105 1.297-2.803a3.978 3.978 0 012.669-1.224 5.52 5.52 0 013.88 2.154 10.391 10.391 0 009.032 4.994c2.99.07 5.879-1.079 8.005-3.182a10.514 10.514 0 003.28-7.833V28.885a3.868 3.868 0 011.285-2.925 4.26 4.26 0 013.01-1.224 4.088 4.088 0 013.06 1.162 4.027 4.027 0 011.163 2.962v37.82a18.64 18.64 0 01-2.582 9.644 19.008 19.008 0 01-7.1 6.965 19.999 19.999 0 01-10.121 2.594 18.665 18.665 0 01-9.375-2.41zm59.189.637a28.37 28.37 0 01-9.216-5.716 4.602 4.602 0 01-1.8-3.537 3.904 3.904 0 011.225-2.79 3.83 3.83 0 012.84-1.225 3.525 3.525 0 012.447.943 23.94 23.94 0 007.099 4.687 21.492 21.492 0 008.31 1.518 16.144 16.144 0 009.167-2.51 7.344 7.344 0 003.746-6.278 8.053 8.053 0 00-3.746-6.927 33.279 33.279 0 00-11.137-4.088c-5.924-1.224-10.465-3.195-13.66-5.949-3.194-2.753-4.773-6.572-4.773-11.443-.067-3.2.875-6.339 2.693-8.972a17.135 17.135 0 017.344-5.9 26.351 26.351 0 0110.672-2.068 29.179 29.179 0 0110.073 1.726c2.85.961 5.46 2.517 7.662 4.565a4.896 4.896 0 011.983 3.672c0 1.037-.42 2.03-1.163 2.754a3.672 3.672 0 01-2.803 1.224 2.827 2.827 0 01-1.97-.698 17.76 17.76 0 00-6.206-3.782 20.599 20.599 0 00-7.515-1.493 15.776 15.776 0 00-9.167 2.375 7.613 7.613 0 000 12.692 32.08 32.08 0 0010.122 3.794 53.376 53.376 0 0111.015 3.44 15.52 15.52 0 016.585 5.507 16.56 16.56 0 012.313 9.216 14.76 14.76 0 01-2.79 8.861 18.457 18.457 0 01-7.625 6.034 25.703 25.703 0 01-10.587 2.154c-3.79.071-7.561-.534-11.138-1.786zM35.763 84.304a6.12 6.12 0 01-.649-3.929H7.344l41.27-72.628 13.55 23.818 3.928-6.952L54.28 3.806C53.951 3.206 51.956 0 48.516 0c-1.554 0-3.782.673-5.593 3.855l-41.81 73.51c-.355.636-2.08 3.977-.367 6.94.784 1.346 2.448 2.949 6.12 2.949h35.017c-3.648 0-5.337-1.579-6.12-2.95z" fill="#01C58E"/>
    <path d="M116.273 77.365L81.917 16.84c-.355-.636-2.337-3.855-5.789-3.855-1.554 0-3.782.66-5.593 3.843l-4.443 7.784 3.953 6.952 6.12-10.832 33.988 59.643H97.23a5.79 5.79 0 01-.27 2.937 3.745 3.745 0 01-.269.6l-.11.22c-1.738 2.962-5.495 3.121-6.23 3.121h20.22c.746 0 4.491-.16 6.23-3.121.77-1.346 1.321-3.61-.527-6.768z" fill="#108775"/>
    <path d="M96.58 84.133l.11-.22c.107-.192.197-.393.27-.6a5.79 5.79 0 00.269-2.937 8.947 8.947 0 00-1.126-3.011l-26.033-45.8-3.978-6.952-3.953 6.952-26.021 45.8a9.265 9.265 0 00-1.004 3.01 6.12 6.12 0 00.38 3.452c.067.164.145.323.232.477.783 1.347 2.448 2.95 6.12 2.95h48.467c.772 0 4.529-.16 6.267-3.121zM66.092 38.517l23.793 41.859H42.311l23.78-41.859z" fill="#2F495E"/>
  </g>
</svg>