<svg xmlns="http://www.w3.org/2000/svg" viewBox="0 0 11 11">
  <defs/>
  <path fill="#fff" fill-rule="nonzero" d="M6.0469 10.2352c.0937 0 .1823-.0417.2656-.125l4.5938-4.625v.0313A.457.457 0 0011 5.2352a.457.457 0 00-.0938-.2812L6.3125.329C6.2292.2665 6.1406.2352 6.047.2352c-.0938 0-.1823.0313-.2656.0938l-.625.625a.457.457 0 00-.0938.2812c0 .1042.0313.1875.0938.25l3.7187 3.75-3.7187 3.75c-.0625.0625-.0938.1458-.0938.25a.457.457 0 00.0938.2813l.625.625c.0833.0625.1718.0937.2656.0937zm-5 0c.0937 0 .1823-.0312.2656-.0937l4.5938-4.6563c.0625-.0625.0937-.1458.0937-.25a.457.457 0 00-.0937-.2812L1.3125.329C1.2292.2665 1.1406.2352 1.047.2352.9531.2352.8646.2665.7813.329l-.625.625a.457.457 0 00-.0938.2812c0 .1042.0313.1875.0938.25l3.7187 3.75-3.7187 3.75c-.0625.0625-.0938.1458-.0938.25a.457.457 0 00.0938.2813l.625.5937c.0833.0833.1718.125.2656.125z"/>
</svg>