<svg xmlns="http://www.w3.org/2000/svg" viewBox="0 0 677.28 633.45">
  <g data-name="Layer 2">
    <g data-name="Layer 1">
      <path fill="#fff" d="M15.36 631.65a15.62 15.62 0 01-10.84-4.07Q0 623.52 0 616.28V15.36A13.34 13.34 0 014.52 5 15.62 15.62 0 0115.36.9h151.81a475.13 475.13 0 0180.88 6.78q39.3 6.78 70 24.85a136.94 136.94 0 0149.25 49.7q18.51 31.65 18.52 81.33a142.22 142.22 0 01-2.71 28c-.6 4.83-2.57 8.14-5.87 9.94a23.23 23.23 0 01-11.3 2.71 18.86 18.86 0 01-9.94-6.31c-2.41-3-3-6.62-1.8-10.85q.88-5.42 1.35-11.29t.45-12.2q0-42.46-16.26-68.68a109.4 109.4 0 00-43.38-40.21q-27.11-14-60.54-19a468.48 468.48 0 00-68.68-5H29.82v585.61q0 15.38-14.46 15.37zm186.15-80.43H94.88q-14.46 0-14.46-15.36V92.17q0-14.44 14.46-14.46h92.17q37.95 0 60.55 9.94t34.79 24.85q12.19 14.91 15.81 31.63a145.25 145.25 0 013.62 30.27c0 3.62-.16 8.45-.46 14.46a76 76 0 01-3.16 18.07 51.91 51.91 0 01-7.2 15.37q-4.53 6.33-11.75 6.32c-3 0-5.12-.3-6.32-.9a15.34 15.34 0 01-7.68-8.59 13.4 13.4 0 01.45-11.29q6.3-13.56 6.3-33.44 0-39.75-24.4-53.31t-60.55-13.56h-76.81V521.4h91.27a397.14 397.14 0 0039.76-1.81q18.07-1.8 30.73-9t19.42-21.69q6.78-14.44 6.78-39.76t-6.78-40.66a56.78 56.78 0 00-19.88-24.4 77.72 77.72 0 00-30.72-12.2 224.25 224.25 0 00-39.31-3.17h-36.14a13.32 13.32 0 01-10.4-4.51 15.64 15.64 0 01-4.06-10.85q0-14.44 14.46-14.45h36.14q28 0 51.06 5.42t39.76 18.52a89.42 89.42 0 0126.2 33.89q9.5 20.79 9.49 52.41 0 32.53-9.49 52.41t-26.2 31.18q-16.74 11.27-39.76 14.88a331 331 0 01-51.06 3.61zM225 631.65H95.78q-14.46 0-14.45-14.46a15.71 15.71 0 014.06-10.85 13.39 13.39 0 0110.39-4.52H225q74.08 0 112.5-42.47t38.4-115.66q0-76.8-39.3-115.22t-115.22-38.4h-56a15.65 15.65 0 01-10.86-4.07 13.32 13.32 0 01-4.52-10.39 15.43 15.43 0 0115.37-15.36h56q87.64 0 136 47t48.34 136.45q0 85.86-47 136.9T225 631.65zM352.42 253q-10.85-2.72-14.46-8.58t-.9-13.11q2.7-10.85 15.36-10.84a12.82 12.82 0 015.42.9 13.69 13.69 0 019 7.68 19.39 19.39 0 01.9 13.11Q363.25 253 352.42 253zM660.56 52.41a15.67 15.67 0 0110.84 4.07 13.36 13.36 0 014.52 10.39v248.5a15.42 15.42 0 01-15.36 15.36h-66.87v287.36a15.43 15.43 0 01-15.36 15.36 13.36 13.36 0 01-10.39-4.52 15.67 15.67 0 01-4.07-10.84V315.37q0-14.46 14.46-14.46h67.77v-234q0-14.5 14.46-14.5zm-95.78-37Q564.78.9 579.23.9q15.36 0 15.36 14.46V234q0 14.44-15.36 14.46-14.46 0-14.45-14.46zM660.56 0q12.65 0 15.36 10.84v.91a15.41 15.41 0 010 12.65q-2.7 6.32-9.94 8.13a6.11 6.11 0 00-2.71.45 6.35 6.35 0 01-2.71.45q-10.84 0-15.36-10.84v-.9A18.35 18.35 0 01646.1 9a13.51 13.51 0 019-8.14zm15.36 551.22a15.43 15.43 0 01-15.36 15.36 13.36 13.36 0 01-10.39-4.52 15.67 15.67 0 01-4.07-10.84V395.79q0-14.46 14.46-14.45a15.67 15.67 0 0110.84 4.06 13.36 13.36 0 014.52 10.39z"/>
    </g>
  </g>
</svg>
