<svg xmlns="http://www.w3.org/2000/svg" viewBox="0 0 92 92">
  <defs/>
  <g fill="none" fill-rule="evenodd" transform="translate(.696 .932)">
    <circle cx="45.304" cy="45.304" r="45.304" fill="#fff"/>
    <path fill="#000" fill-rule="nonzero" d="M31.5537 36.5537c.3646 0 .664-.1171.8984-.3515.2344-.2344.3516-.5339.3516-.8985v-5c0-.3645-.1172-.664-.3516-.8984-.2344-.2343-.5338-.3515-.8984-.3515h-5c-.3646 0-.664.1172-.8984.3515-.2344.2344-.3516.5339-.3516.8985v5c0 .3645.1172.664.3516.8984.2343.2344.5338.3515.8984.3515h5zm32.4999-.9375c.3646 0 .664-.1171.8984-.3515.2344-.2344.3516-.5339.3516-.8984v-3.125c0-.3646-.1172-.6641-.3516-.8985-.2343-.2344-.5338-.3515-.8984-.3515h-27.5c-.3645 0-.664.1171-.8984.3515-.2343.2344-.3515.5339-.3515.8985v3.125c0 .3645.1172.664.3515.8984.2344.2344.5339.3515.8985.3515h27.4999zm-32.5 13.4375c.3647 0 .6641-.1172.8985-.3515.2344-.2344.3516-.5339.3516-.8985v-5c0-.3646-.1172-.664-.3516-.8984-.2344-.2344-.5338-.3516-.8984-.3516h-5c-.3646 0-.664.1172-.8984.3516-.2344.2344-.3516.5338-.3516.8984v5c0 .3646.1172.664.3516.8985.2343.2343.5338.3515.8984.3515h5zm32.5-.9375c.3646 0 .664-.1172.8984-.3515.2344-.2344.3516-.5339.3516-.8985v-3.125c0-.3646-.1172-.664-.3516-.8984-.2343-.2344-.5338-.3516-.8984-.3516h-27.5c-.3645 0-.664.1172-.8984.3516-.2343.2344-.3515.5338-.3515.8984v3.125c0 .3646.1172.664.3515.8985.2344.2343.5339.3515.8985.3515h27.4999zm-32.5 13.4375c.3647 0 .6641-.1172.8985-.3516.2344-.2343.3516-.5338.3516-.8984v-5c0-.3646-.1172-.664-.3516-.8984-.2344-.2344-.5338-.3516-.8984-.3516h-5c-.3646 0-.664.1172-.8984.3516-.2344.2343-.3516.5338-.3516.8984v5c0 .3646.1172.664.3516.8984.2343.2344.5338.3516.8984.3516h5zm32.5-.9375c.3646 0 .664-.1172.8984-.3516.2344-.2343.3516-.5338.3516-.8984v-3.125c0-.3646-.1172-.664-.3516-.8984-.2343-.2344-.5338-.3516-.8984-.3516h-27.5c-.3645 0-.664.1172-.8984.3516-.2343.2343-.3515.5338-.3515.8984v3.125c0 .3646.1172.664.3515.8984.2344.2344.5339.3516.8985.3516h27.4999z"/>
  </g>
</svg>