<svg xmlns="http://www.w3.org/2000/svg" viewBox="0 0 1535.85 1535.85">
  <g data-name="Layer 2">
    <g data-name="Layer 1">
      <path fill="#fff" d="M311.09 167.63a12.18 12.18 0 0015.91 1.13c261.21-192.48 620.7-192.48 881.91 0a12.18 12.18 0 0015.88-1.13 12.23 12.23 0 00-1.31-18.46c-269.81-198.89-641.23-198.89-911 0a12.23 12.23 0 00-1.39 18.46zM1368.22 311.09a12.2 12.2 0 00-1.13 15.88c192.49 261.21 192.49 620.7 0 881.91a12.2 12.2 0 001.13 15.88 12.22 12.22 0 0018.46-1.31c198.9-269.81 198.9-641.23 0-911a12.23 12.23 0 00-18.46-1.36zM149.17 312.4c-198.89 269.82-198.89 641.24 0 911.05a12.22 12.22 0 0018.46 1.31 12.18 12.18 0 001.13-15.88c-192.48-261.21-192.48-620.7 0-881.91a12.18 12.18 0 00-1.13-15.88 12.23 12.23 0 00-18.46 1.31zM311.09 1368.22a12.23 12.23 0 001.31 18.46c269.82 198.9 641.24 198.9 911.05 0a12.23 12.23 0 001.31-18.46 12.2 12.2 0 00-15.88-1.13c-261.21 192.49-620.7 192.49-881.91 0a12.2 12.2 0 00-15.88 1.13z"/>
    </g>
  </g>
</svg>
