<svg xmlns="http://www.w3.org/2000/svg" viewBox="0 0 1842.23 1842.22">
  <g data-name="Layer 2">
    <g data-name="Layer 1">
      <path fill="#fff" d="M1635.6 364.87a13.47 13.47 0 00-1.15 17.67c113.46 149.9 180.86 336.5 180.86 538.57s-67.4 388.67-180.87 538.58a13.44 13.44 0 001.16 17.66 13.47 13.47 0 0020.24-1.31c116.93-154.43 186.39-346.72 186.39-554.93s-69.45-400.49-186.39-554.93a13.48 13.48 0 00-20.24-1.31zM364.87 206.62a13.46 13.46 0 0017.67 1.16C532.44 94.32 719 26.91 921.11 26.91s388.67 67.41 538.58 180.87a13.44 13.44 0 0017.66-1.16 13.47 13.47 0 00-1.3-20.23C1321.61 69.45 1129.32 0 921.11 0S520.62 69.45 366.18 186.39a13.47 13.47 0 00-1.31 20.23zM1477.35 1635.6a13.44 13.44 0 00-17.66-1.16c-149.91 113.46-336.51 180.87-538.58 180.87s-388.67-67.41-538.57-180.87a13.44 13.44 0 00-17.66 1.16 13.48 13.48 0 001.3 20.24c154.44 116.93 346.73 186.38 554.93 186.38s400.49-69.45 554.93-186.38a13.47 13.47 0 001.31-20.24zM206.62 1477.35a13.44 13.44 0 001.16-17.66C94.32 1309.78 26.91 1123.18 26.91 921.11s67.41-388.67 180.87-538.57a13.46 13.46 0 00-1.16-17.67 13.47 13.47 0 00-20.23 1.31C69.45 520.62 0 712.91 0 921.11s69.45 400.5 186.39 554.89a13.46 13.46 0 0020.23 1.31z"/>
    </g>
  </g>
</svg>
