<svg xmlns="http://www.w3.org/2000/svg" viewBox="0 0 1672.24 1672.24">
  <g data-name="Layer 2">
    <g data-name="Layer 1">
      <path fill="#fff" d="M26.74 713C80.23 360 360 80.23 713 26.74a13.43 13.43 0 0011.49-13.26A13.43 13.43 0 00709.13.15c-364.76 55.18-653.8 344.22-709 709a13.43 13.43 0 0013.33 15.35A13.43 13.43 0 0026.74 713zM959.25 26.74C1312.28 80.23 1592 360 1645.49 713a13.44 13.44 0 0013.27 11.49 13.42 13.42 0 0013.32-15.35c-55.17-364.76-344.22-653.8-709-709a13.44 13.44 0 00-15.36 13.33 13.43 13.43 0 0011.53 13.27zM713 1645.49C360 1592 80.23 1312.28 26.74 959.25a13.43 13.43 0 00-13.26-11.5A13.44 13.44 0 00.15 963.11c55.18 364.75 344.22 653.8 709 709a13.42 13.42 0 0015.35-13.32 13.44 13.44 0 00-11.5-13.3zM1645.49 959.25c-53.48 353-333.21 632.76-686.24 686.24a13.44 13.44 0 00-11.5 13.27 13.43 13.43 0 0015.36 13.32c364.75-55.17 653.8-344.22 709-709a13.43 13.43 0 00-13.32-15.36 13.44 13.44 0 00-13.3 11.53z"/>
    </g>
  </g>
</svg>
